<?xml version="1.0" encoding="UTF-8" standalone="no"?>
<svg
   height="24"
   viewBox="0 -960 960 960"
   width="24"
   version="1.1"
   id="svg1"
   sodipodi:docname="additionals.svg"
   inkscape:version="1.3 (0e150ed6c4, 2023-07-21)"
   xmlns:inkscape="http://www.inkscape.org/namespaces/inkscape"
   xmlns:sodipodi="http://sodipodi.sourceforge.net/DTD/sodipodi-0.dtd"
   xmlns="http://www.w3.org/2000/svg"
   xmlns:svg="http://www.w3.org/2000/svg">
  <defs
     id="defs1" />
  <sodipodi:namedview
     id="namedview1"
     pagecolor="#ffffff"
     bordercolor="#000000"
     borderopacity="0.25"
     inkscape:showpageshadow="2"
     inkscape:pageopacity="0.0"
     inkscape:pagecheckerboard="0"
     inkscape:deskcolor="#d1d1d1"
     inkscape:zoom="12.302083"
     inkscape:cx="-44.220152"
     inkscape:cy="12.640135"
     inkscape:window-width="3440"
     inkscape:window-height="1377"
     inkscape:window-x="1912"
     inkscape:window-y="-8"
     inkscape:window-maximized="1"
     inkscape:current-layer="svg1" />
  <path
     d="m 217.22834,-637.66299 v -105.10867 h 735.76065 v 105.10867 z m 0,210.21732 v -105.10866 h 735.76065 v 105.10866 z m 0,210.21733 V -322.337 h 735.76065 v 105.10866 z M 59.565343,-637.66299 q -22.335592,0 -37.444962,-15.10938 -15.1093716,-15.10937 -15.1093716,-37.44496 0,-22.33559 15.1093716,-37.44496 15.10937,-15.10937 37.444962,-15.10937 22.335591,0 37.444961,15.10937 15.109366,15.10937 15.109366,37.44496 0,22.33559 -15.109366,37.44496 -15.10937,15.10938 -37.444961,15.10938 z m 0,210.21732 q -22.335592,0 -37.444962,-15.10937 -15.1093716,-15.10936 -15.1093716,-37.44495 0,-22.3356 15.1093716,-37.44497 15.10937,-15.10937 37.444962,-15.10937 22.335591,0 37.444961,15.10937 15.109366,15.10937 15.109366,37.44497 0,22.33559 -15.109366,37.44495 -15.10937,15.10937 -37.444961,15.10937 z m 0,210.21733 q -22.335592,0 -37.444962,-15.10936 -15.1093716,-15.10938 -15.1093716,-37.44497 0,-22.33559 15.1093716,-37.44496 15.10937,-15.10937 37.444962,-15.10937 22.335591,0 37.444961,15.10937 15.109366,15.10937 15.109366,37.44496 0,22.33559 -15.109366,37.44497 -15.10937,15.10936 -37.444961,15.10936 z"
     id="path1"
     style="stroke-width:1.31386" />
</svg>
