<?xml version="1.0" encoding="UTF-8" standalone="no"?>
<svg
   viewBox="0 0 24 24"
   version="1.1"
   id="svg1"
   sodipodi:docname="bug-outline.svg"
   inkscape:version="1.3 (0e150ed6c4, 2023-07-21)"
   xmlns:inkscape="http://www.inkscape.org/namespaces/inkscape"
   xmlns:sodipodi="http://sodipodi.sourceforge.net/DTD/sodipodi-0.dtd"
   xmlns="http://www.w3.org/2000/svg"
   xmlns:svg="http://www.w3.org/2000/svg">
  <defs
     id="defs1" />
  <sodipodi:namedview
     id="namedview1"
     pagecolor="#ffffff"
     bordercolor="#000000"
     borderopacity="0.25"
     inkscape:showpageshadow="2"
     inkscape:pageopacity="0.0"
     inkscape:pagecheckerboard="0"
     inkscape:deskcolor="#d1d1d1"
     inkscape:zoom="17.104167"
     inkscape:cx="24.175396"
     inkscape:cy="19.030451"
     inkscape:window-width="1920"
     inkscape:window-height="1017"
     inkscape:window-x="-8"
     inkscape:window-y="-8"
     inkscape:window-maximized="1"
     inkscape:current-layer="svg1" />
  <path
     d="M 22.105872,6.9531168 H 18.556185 C 17.987729,5.9425297 17.204524,5.0582659 16.257099,4.426649 L 18.31617,2.418107 16.53501,0.63694726 13.793792,3.3781648 C 13.212705,3.2392091 12.631617,3.1634151 12,3.1634151 c -0.631617,0 -1.200073,0.075794 -1.78116,0.2147497 L 7.4649897,0.63694726 5.6838298,2.418107 7.7302688,4.426649 C 6.7828433,5.0582659 6.0122706,5.9551621 5.4438154,6.9531168 H 1.8941281 v 2.5264679 h 2.6401588 c -0.075794,0.4168672 -0.113691,0.8337343 -0.113691,1.2632343 v 1.263234 H 1.8941281 v 2.526467 h 2.5264678 v 1.263234 c 0,0.429499 0.037897,0.846367 0.113691,1.263234 H 1.8941281 v 2.526468 h 3.5496873 c 2.0969683,3.625481 6.7330376,4.850818 10.3458876,2.75385 1.149543,-0.656882 2.1096,-1.616939 2.766482,-2.75385 h 3.549687 v -2.526468 h -2.640158 c 0.07579,-0.416867 0.11369,-0.833735 0.11369,-1.263234 V 14.53252 h 2.526468 v -2.526467 h -2.526468 v -1.263234 c 0,-0.4295 -0.0379,-0.8463671 -0.11369,-1.2632343 h 2.640158 V 6.9531168 M 17.052937,15.795754 A 5.0529357,5.0529357 0 0 1 12,20.84869 5.0529357,5.0529357 0 0 1 6.9470638,15.795754 V 10.742819 A 5.0529357,5.0529357 0 0 1 12,5.6898829 5.0529357,5.0529357 0 0 1 17.052937,10.742819 v 5.052935 M 14.526469,9.4795847 V 12.006053 H 9.4735317 V 9.4795847 H 14.526469 M 9.4735317,14.53252 h 5.0529373 v 2.526468 H 9.4735317 Z"
     id="path1"
     style="stroke-width:1.26323" />
</svg>
