<?xml version="1.0" encoding="UTF-8" standalone="no"?>
<svg
   viewBox="0 0 24 24"
   version="1.1"
   id="svg1"
   sodipodi:docname="cog.svg"
   inkscape:version="1.3 (0e150ed6c4, 2023-07-21)"
   xmlns:inkscape="http://www.inkscape.org/namespaces/inkscape"
   xmlns:sodipodi="http://sodipodi.sourceforge.net/DTD/sodipodi-0.dtd"
   xmlns="http://www.w3.org/2000/svg"
   xmlns:svg="http://www.w3.org/2000/svg">
  <defs
     id="defs1" />
  <sodipodi:namedview
     id="namedview1"
     pagecolor="#ffffff"
     bordercolor="#000000"
     borderopacity="0.25"
     inkscape:showpageshadow="2"
     inkscape:pageopacity="0.0"
     inkscape:pagecheckerboard="0"
     inkscape:deskcolor="#d1d1d1"
     inkscape:zoom="34.208333"
     inkscape:cx="11.985384"
     inkscape:cy="12"
     inkscape:window-width="3440"
     inkscape:window-height="1377"
     inkscape:window-x="1912"
     inkscape:window-y="-8"
     inkscape:window-maximized="1"
     inkscape:current-layer="svg1" />
  <path
     d="M 12.002619,16.149695 A 4.1496955,4.1496955 0 0 1 7.8529231,12 4.1496955,4.1496955 0 0 1 12.002619,7.8503043 4.1496955,4.1496955 0 0 1 16.152315,12 4.1496955,4.1496955 0 0 1 12.002619,16.149695 m 8.809211,-2.999637 c 0.04743,-0.3794 0.08299,-0.758801 0.08299,-1.150058 0,-0.391257 -0.03557,-0.782514 -0.08299,-1.185627 L 23.313504,8.8818001 C 23.538773,8.703956 23.598054,8.3838366 23.455779,8.1229986 L 21.084524,4.0207282 C 20.942249,3.7598902 20.62213,3.6531838 20.361292,3.7598902 L 17.40908,4.9455175 C 16.792554,4.4831229 16.152315,4.0800096 15.40537,3.7836028 L 14.966688,0.64169046 C 14.919263,0.35713991 14.670281,0.143727 14.373874,0.143727 h -4.74251 c -0.2964068,0 -0.5453885,0.21341291 -0.5928136,0.49796346 L 8.5998683,3.7836028 C 7.8529231,4.0800096 7.2126844,4.4831229 6.5961582,4.9455175 L 3.6439462,3.7598902 c -0.260838,-0.1067064 -0.5809573,0 -0.7232326,0.260838 L 0.54945906,8.1229986 C 0.39532751,8.3838366 0.46646515,8.703956 0.69173433,8.8818001 L 3.1934079,10.814373 C 3.1459829,11.217486 3.1104139,11.608743 3.1104139,12 c 0,0.391257 0.035569,0.770658 0.082994,1.150058 L 0.69173433,15.1182 c -0.22526918,0.177844 -0.29640682,0.497963 -0.14227527,0.758801 l 2.37125454,4.10227 c 0.1422753,0.260838 0.4623946,0.355689 0.7232326,0.260838 l 2.952212,-1.197483 c 0.6165262,0.474251 1.2567649,0.877364 2.0037101,1.173771 l 0.4386821,3.141912 c 0.047425,0.284551 0.2964068,0.497964 0.5928136,0.497964 h 4.74251 c 0.296407,0 0.545389,-0.213413 0.592814,-0.497964 l 0.438682,-3.141912 c 0.746945,-0.308263 1.387184,-0.69952 2.00371,-1.173771 l 2.952212,1.197483 c 0.260838,0.09485 0.580957,0 0.723232,-0.260838 l 2.371255,-4.10227 c 0.142275,-0.260838 0.08299,-0.580957 -0.142275,-0.758801 z"
     id="path1"
     style="stroke-width:1.18563" />
</svg>
