<?xml version="1.0" encoding="UTF-8" standalone="no"?>
<svg
   viewBox="0 0 24 24"
   version="1.1"
   id="svg1"
   sodipodi:docname="content-save-outline.svg"
   inkscape:version="1.3 (0e150ed6c4, 2023-07-21)"
   xmlns:inkscape="http://www.inkscape.org/namespaces/inkscape"
   xmlns:sodipodi="http://sodipodi.sourceforge.net/DTD/sodipodi-0.dtd"
   xmlns="http://www.w3.org/2000/svg"
   xmlns:svg="http://www.w3.org/2000/svg">
  <defs
     id="defs1" />
  <sodipodi:namedview
     id="namedview1"
     pagecolor="#ffffff"
     bordercolor="#000000"
     borderopacity="0.25"
     inkscape:showpageshadow="2"
     inkscape:pageopacity="0.0"
     inkscape:pagecheckerboard="0"
     inkscape:deskcolor="#d1d1d1"
     inkscape:zoom="24.188944"
     inkscape:cx="11.410171"
     inkscape:cy="14.407408"
     inkscape:window-width="1920"
     inkscape:window-height="1017"
     inkscape:window-x="-8"
     inkscape:window-y="-8"
     inkscape:window-maximized="1"
     inkscape:current-layer="svg1" />
  <path
     d="M 18.446942,0.39550419 H 2.9742808 c -1.4312211,0 -2.57877685,1.16044961 -2.57877685,2.57877681 v 18.051438 c 0,1.418327 1.14755575,2.578777 2.57877685,2.578777 H 21.025719 c 1.418327,0 2.578777,-1.16045 2.578777,-2.578777 V 5.5530579 L 18.446942,0.39550419 M 21.025719,21.025719 H 2.9742808 V 2.974281 H 17.376749 l 3.64897,3.6489692 V 21.025719 M 12,12.000001 c -2.1403851,0 -3.8681655,1.727779 -3.8681655,3.868163 0,2.140385 1.7277804,3.868166 3.8681655,3.868166 2.140385,0 3.868165,-1.727781 3.868165,-3.868166 0,-2.140384 -1.72778,-3.868163 -3.868165,-3.868163 M 4.2636693,4.2636695 H 15.868165 V 9.4212232 H 4.2636693 Z"
     id="path1"
     style="stroke-width:1.28939" />
</svg>
