<?xml version="1.0" encoding="UTF-8" standalone="no"?>
<svg
   height="24"
   viewBox="0 -960 960 960"
   width="24"
   version="1.1"
   id="svg1"
   sodipodi:docname="delete.svg"
   inkscape:version="1.3 (0e150ed6c4, 2023-07-21)"
   xmlns:inkscape="http://www.inkscape.org/namespaces/inkscape"
   xmlns:sodipodi="http://sodipodi.sourceforge.net/DTD/sodipodi-0.dtd"
   xmlns="http://www.w3.org/2000/svg"
   xmlns:svg="http://www.w3.org/2000/svg">
  <defs
     id="defs1" />
  <sodipodi:namedview
     id="namedview1"
     pagecolor="#ffffff"
     bordercolor="#000000"
     borderopacity="0.25"
     inkscape:showpageshadow="2"
     inkscape:pageopacity="0.0"
     inkscape:pagecheckerboard="0"
     inkscape:deskcolor="#d1d1d1"
     inkscape:zoom="18"
     inkscape:cx="12"
     inkscape:cy="12"
     inkscape:window-width="1350"
     inkscape:window-height="1212"
     inkscape:window-x="4107"
     inkscape:window-y="159"
     inkscape:window-maximized="0"
     inkscape:current-layer="svg1" />
  <path
     d="m 350,-255 130,-130 130,130 70,-70 -130,-130 130,-130 -70,-70 -130,130 -130,-130 -70,70 130,130 -130,130 z M 230,-30 Q 188.75,-30 159.375,-59.375 130,-88.75 130,-130 V -780 H 80.000002 V -880 H 330 v -50 h 300 v 50 h 250 v 100 h -50 v 650 q 0,41.25 -29.375,70.625 Q 771.25,-30 730,-30 Z M 730,-780 H 230 v 650 h 500 z m -500,0 v 650 z"
     id="path1"
     style="stroke-width:1.25" />
</svg>
