<?xml version="1.0" encoding="UTF-8" standalone="no"?>
<svg
   height="24"
   viewBox="0 -960 960 960"
   width="24"
   version="1.1"
   id="svg1"
   sodipodi:docname="delete_forever_FILL0_wght400_GRAD0_opsz24.svg"
   inkscape:version="1.3 (0e150ed6c4, 2023-07-21)"
   xmlns:inkscape="http://www.inkscape.org/namespaces/inkscape"
   xmlns:sodipodi="http://sodipodi.sourceforge.net/DTD/sodipodi-0.dtd"
   xmlns="http://www.w3.org/2000/svg"
   xmlns:svg="http://www.w3.org/2000/svg">
  <defs
     id="defs1" />
  <sodipodi:namedview
     id="namedview1"
     pagecolor="#ffffff"
     bordercolor="#000000"
     borderopacity="0.25"
     inkscape:showpageshadow="2"
     inkscape:pageopacity="0.0"
     inkscape:pagecheckerboard="0"
     inkscape:deskcolor="#d1d1d1"
     inkscape:zoom="24.604167"
     inkscape:cx="6.9906859"
     inkscape:cy="7.3767993"
     inkscape:window-width="3440"
     inkscape:window-height="1377"
     inkscape:window-x="1912"
     inkscape:window-y="-8"
     inkscape:window-maximized="1"
     inkscape:current-layer="svg1" />
  <path
     d="M 350.25685,-255.44454 480,-385.18769 609.74316,-255.44454 679.60485,-325.30623 549.8617,-455.04939 679.60485,-584.79254 609.74316,-654.65424 480,-524.91109 350.25685,-654.65424 l -69.86171,69.8617 129.74317,129.74315 -129.74317,129.74316 z M 230.49393,-30.889077 q -41.1685,0 -70.48547,-29.316963 Q 130.6915,-89.523003 130.6915,-130.6915 V -779.40728 H 80.790288 v -99.80243 H 330.29636 v -49.90121 h 299.40728 v 49.90121 h 249.50607 v 99.80243 H 829.3085 v 648.71578 q 0,41.168497 -29.31697,70.48546 -29.31696,29.316963 -70.48546,29.316963 z M 729.50607,-779.40728 H 230.49393 v 648.71578 h 499.01214 z m -499.01214,0 v 648.71578 z"
     id="path1"
     style="stroke-width:1.24753" />
</svg>
