<?xml version="1.0" encoding="UTF-8" standalone="no"?>
<svg
   height="24"
   viewBox="0 -960 960 960"
   width="24"
   version="1.1"
   id="svg1"
   sodipodi:docname="error.svg"
   inkscape:version="1.3 (0e150ed6c4, 2023-07-21)"
   xmlns:inkscape="http://www.inkscape.org/namespaces/inkscape"
   xmlns:sodipodi="http://sodipodi.sourceforge.net/DTD/sodipodi-0.dtd"
   xmlns="http://www.w3.org/2000/svg"
   xmlns:svg="http://www.w3.org/2000/svg">
  <defs
     id="defs1" />
  <sodipodi:namedview
     id="namedview1"
     pagecolor="#ffffff"
     bordercolor="#000000"
     borderopacity="0.25"
     inkscape:showpageshadow="2"
     inkscape:pageopacity="0.0"
     inkscape:pagecheckerboard="0"
     inkscape:deskcolor="#d1d1d1"
     inkscape:zoom="34.795546"
     inkscape:cx="15.174356"
     inkscape:cy="13.148234"
     inkscape:window-width="3440"
     inkscape:window-height="1377"
     inkscape:window-x="1912"
     inkscape:window-y="-8"
     inkscape:window-maximized="1"
     inkscape:current-layer="svg1" />
  <path
     d="m 480,-242.92629 q 20.15127,0 33.783,-13.63174 13.63174,-13.63174 13.63174,-33.783 0,-20.15127 -13.63174,-33.78301 -13.63173,-13.63173 -33.783,-13.63173 -20.15126,0 -33.783,13.63173 -13.63174,13.63174 -13.63174,33.78301 0,20.15126 13.63174,33.783 13.63174,13.63174 33.783,13.63174 z m -47.41474,-189.65897 h 94.82948 V -717.07371 H 432.58526 Z M 480,-5.8525795 q -98.38559,0 -184.91749,-37.3391085 Q 208.5506,-80.530798 144.5407,-144.5407 80.530798,-208.5506 43.191688,-295.08251 5.852579,-381.61441 5.852579,-480 q 0,-98.38559 37.339109,-184.91749 37.33911,-86.53191 101.349012,-150.54181 64.0099,-64.0099 150.54181,-101.34901 86.5319,-37.33911 184.91749,-37.33911 98.38559,0 184.91749,37.33911 86.53191,37.33911 150.54181,101.34901 64.0099,64.0099 101.34901,150.54181 37.33911,86.5319 37.33911,184.91749 0,98.38559 -37.33911,184.91749 Q 879.4692,-208.5506 815.4593,-144.5407 751.4494,-80.530798 664.91749,-43.191688 578.38559,-5.8525795 480,-5.8525795 Z m 0,-94.8294805 q 158.83939,0 269.07866,-110.23928 Q 859.31794,-321.16061 859.31794,-480 q 0,-158.83939 -110.23928,-269.07866 Q 638.83939,-859.31794 480,-859.31794 q -158.83939,0 -269.07866,110.23928 Q 100.68206,-638.83939 100.68206,-480 q 0,158.83939 110.23928,269.07866 Q 321.16061,-100.68206 480,-100.68206 Z M 480,-480 Z"
     id="path1"
     style="stroke-width:1.18537" />
</svg>
