<?xml version="1.0" encoding="UTF-8" standalone="no"?>
<svg
   viewBox="0 0 24 24"
   version="1.1"
   id="svg1"
   sodipodi:docname="file-document-remove-outline.svg"
   inkscape:version="1.3 (0e150ed6c4, 2023-07-21)"
   xmlns:inkscape="http://www.inkscape.org/namespaces/inkscape"
   xmlns:sodipodi="http://sodipodi.sourceforge.net/DTD/sodipodi-0.dtd"
   xmlns="http://www.w3.org/2000/svg"
   xmlns:svg="http://www.w3.org/2000/svg">
  <defs
     id="defs1" />
  <sodipodi:namedview
     id="namedview1"
     pagecolor="#ffffff"
     bordercolor="#000000"
     borderopacity="0.25"
     inkscape:showpageshadow="2"
     inkscape:pageopacity="0.0"
     inkscape:pagecheckerboard="0"
     inkscape:deskcolor="#d1d1d1"
     inkscape:zoom="34.208333"
     inkscape:cx="11.985384"
     inkscape:cy="12"
     inkscape:window-width="1920"
     inkscape:window-height="1017"
     inkscape:window-x="-8"
     inkscape:window-y="-8"
     inkscape:window-maximized="1"
     inkscape:current-layer="svg1" />
  <path
     d="m 22.628891,22.147323 -2.442237,-2.430771 2.442237,-2.430771 -1.628158,-1.628158 -2.430771,2.442237 -2.430772,-2.442237 -1.628158,1.628158 2.442237,2.430771 -2.442237,2.430771 1.628158,1.628158 2.430772,-2.442237 2.430771,2.442237 M 3.6642896,0.22451903 c -1.2727151,0 -2.2931804,1.03193127 -2.2931804,2.29318047 V 20.863142 c 0,1.272715 1.0204653,2.293181 2.2931804,2.293181 h 8.9548694 c -0.412772,-0.710886 -0.69942,-1.490568 -0.837011,-2.293181 H 3.6642896 V 2.5176995 h 8.0261314 v 5.7329508 h 5.73295 v 4.6780877 c 0.378375,-0.05733 0.768216,-0.09173 1.146591,-0.09173 0.38984,0 0.768215,0.0344 1.14659,0.09173 V 7.1040602 L 12.837011,0.22451903 M 5.9574699,11.690421 v 2.29318 h 9.1727211 v -2.29318 m -9.1727211,4.58636 v 2.293181 h 5.7329511 v -2.293181 z"
     id="path1"
     style="stroke-width:1.14659" />
</svg>
