<?xml version="1.0" encoding="UTF-8" standalone="no"?>
<svg
   width="1em"
   height="1em"
   viewBox="0 0 24 24"
   version="1.1"
   id="svg2"
   sodipodi:docname="folder-git-2.svg"
   inkscape:version="1.3 (0e150ed6c4, 2023-07-21)"
   xmlns:inkscape="http://www.inkscape.org/namespaces/inkscape"
   xmlns:sodipodi="http://sodipodi.sourceforge.net/DTD/sodipodi-0.dtd"
   xmlns="http://www.w3.org/2000/svg"
   xmlns:svg="http://www.w3.org/2000/svg">
  <defs
     id="defs2" />
  <sodipodi:namedview
     id="namedview2"
     pagecolor="#ffffff"
     bordercolor="#000000"
     borderopacity="0.25"
     inkscape:showpageshadow="2"
     inkscape:pageopacity="0.0"
     inkscape:pagecheckerboard="0"
     inkscape:deskcolor="#d1d1d1"
     inkscape:zoom="34.208333"
     inkscape:cx="11.985384"
     inkscape:cy="12"
     inkscape:window-width="3440"
     inkscape:window-height="1377"
     inkscape:window-x="1912"
     inkscape:window-y="-8"
     inkscape:window-maximized="1"
     inkscape:current-layer="svg2" />
  <g
     fill="none"
     stroke="currentColor"
     stroke-linecap="round"
     stroke-linejoin="round"
     stroke-width="2"
     id="g2"
     transform="matrix(1.0744104,0,0,1.0744104,-0.8929248,-1.4300784)">
    <path
       d="M 9,20 H 4 A 2,2 0 0 1 2,18 V 5 A 2,2 0 0 1 4,3 H 7.9 A 2,2 0 0 1 9.59,3.9 L 10.4,5.1 A 2,2 0 0 0 12.07,6 H 20 a 2,2 0 0 1 2,2 v 5"
       id="path1" />
    <circle
       cx="13"
       cy="12"
       r="2"
       id="circle1" />
    <path
       d="m 18,19 c -2.8,0 -5,-2.2 -5,-5 v 8"
       id="path2" />
    <circle
       cx="20"
       cy="19"
       r="2"
       id="circle2" />
  </g>
</svg>
