<?xml version="1.0" encoding="UTF-8" standalone="no"?>
<svg
   viewBox="0 0 24 24"
   version="1.1"
   id="svg1"
   sodipodi:docname="github.svg"
   inkscape:version="1.3 (0e150ed6c4, 2023-07-21)"
   xmlns:inkscape="http://www.inkscape.org/namespaces/inkscape"
   xmlns:sodipodi="http://sodipodi.sourceforge.net/DTD/sodipodi-0.dtd"
   xmlns="http://www.w3.org/2000/svg"
   xmlns:svg="http://www.w3.org/2000/svg">
  <defs
     id="defs1" />
  <sodipodi:namedview
     id="namedview1"
     pagecolor="#ffffff"
     bordercolor="#000000"
     borderopacity="0.25"
     inkscape:showpageshadow="2"
     inkscape:pageopacity="0.0"
     inkscape:pagecheckerboard="0"
     inkscape:deskcolor="#d1d1d1"
     inkscape:zoom="34.208333"
     inkscape:cx="11.985384"
     inkscape:cy="20.857491"
     inkscape:window-width="1920"
     inkscape:window-height="1017"
     inkscape:window-x="-8"
     inkscape:window-y="-8"
     inkscape:window-maximized="1"
     inkscape:current-layer="svg1" />
  <path
     d="M 12,0.35964029 A 11.929354,11.929354 0 0 0 0.07064546,12.288996 c 0,5.272774 3.42372464,9.746282 8.15967834,11.332886 0.5964678,0.09544 0.7873374,-0.274375 0.7873374,-0.596467 0,-0.274376 0,-1.025925 0,-2.016061 C 5.71323,21.725115 5.0093981,19.41082 5.0093981,19.41082 4.4606478,18.027015 3.6852398,17.657205 3.6852398,17.657205 c -1.0855713,-0.73962 0.083505,-0.715761 0.083505,-0.715761 1.1929354,0.0835 1.8251912,1.228723 1.8251912,1.228723 1.0378538,1.813262 2.7914689,1.276441 3.4714421,0.990137 0.1073642,-0.775408 0.4175274,-1.3003 0.7515494,-1.598534 -2.6483167,-0.298234 -5.4278563,-1.324158 -5.4278563,-5.869243 0,-1.324158 0.4533155,-2.3858709 1.2287235,-3.232855 -0.119293,-0.2982339 -0.5368204,-1.5388867 0.1192941,-3.1493496 0,0 1.0020657,-0.3220926 3.2805724,1.2167942 C 9.9600802,6.2646708 10.986005,6.1334479 12,6.1334479 c 1.013996,0 2.03992,0.1312229 2.982339,0.3936687 2.278507,-1.5388868 3.280573,-1.2167942 3.280573,-1.2167942 0.656114,1.6104629 0.238587,2.8511157 0.119293,3.1493496 0.775408,0.8469841 1.228724,1.908697 1.228724,3.232855 0,4.557014 -2.791469,5.55908 -5.451715,5.857314 0.429456,0.36981 0.823125,1.0975 0.823125,2.20693 0,1.598534 0,2.886904 0,3.268644 0,0.322092 0.19087,0.703831 0.799267,0.596467 4.735954,-1.598533 8.147749,-6.060112 8.147749,-11.332886 A 11.929354,11.929354 0 0 0 12,0.35964029 Z"
     id="path1"
     style="stroke-width:1.19294" />
</svg>
