<?xml version="1.0" encoding="UTF-8" standalone="no"?>
<svg
   viewBox="0 0 24 24"
   version="1.1"
   id="svg1"
   sodipodi:docname="help-box-outline.svg"
   inkscape:version="1.3 (0e150ed6c4, 2023-07-21)"
   xmlns:inkscape="http://www.inkscape.org/namespaces/inkscape"
   xmlns:sodipodi="http://sodipodi.sourceforge.net/DTD/sodipodi-0.dtd"
   xmlns="http://www.w3.org/2000/svg"
   xmlns:svg="http://www.w3.org/2000/svg">
  <defs
     id="defs1" />
  <sodipodi:namedview
     id="namedview1"
     pagecolor="#ffffff"
     bordercolor="#000000"
     borderopacity="0.25"
     inkscape:showpageshadow="2"
     inkscape:pageopacity="0.0"
     inkscape:pagecheckerboard="0"
     inkscape:deskcolor="#d1d1d1"
     inkscape:zoom="34.208333"
     inkscape:cx="11.985384"
     inkscape:cy="13.023143"
     inkscape:window-width="1920"
     inkscape:window-height="1017"
     inkscape:window-x="-8"
     inkscape:window-y="-8"
     inkscape:window-maximized="1"
     inkscape:current-layer="svg1" />
  <path
     d="m 10.741778,19.54933 h 2.516443 V 17.032885 H 10.741778 V 19.54933 M 12,4.4506695 c -2.7680882,0 -5.0328873,2.264799 -5.0328873,5.0328867 h 2.5164434 c 0,-1.3840438 1.1323999,-2.5164434 2.5164439,-2.5164434 1.384044,0 2.516443,1.1323996 2.516443,2.5164434 0,2.5164428 -3.774665,2.2647988 -3.774665,6.2911078 h 2.516443 c 0,-2.768088 3.774665,-3.145554 3.774665,-6.2911078 C 17.032886,6.7154685 14.768087,4.4506695 12,4.4506695 M 20.807551,3.1924479 V 20.80755 H 3.1924478 V 3.1924479 H 20.807551 m 0,-2.51644334 H 3.1924478 c -1.3840439,0 -2.51644335,1.13239944 -2.51644335,2.51644334 V 20.80755 c 0,1.384045 1.13239945,2.516445 2.51644335,2.516445 H 20.807551 c 1.384045,0 2.516445,-1.1324 2.516445,-2.516445 V 3.1924479 c 0,-1.3840439 -1.1324,-2.51644334 -2.516445,-2.51644334 z"
     id="path1"
     style="stroke-width:1.25822" />
</svg>
