<?xml version="1.0" encoding="UTF-8" standalone="no"?>
<svg
   height="24"
   viewBox="0 -960 960 960"
   width="24"
   version="1.1"
   id="svg1"
   sodipodi:docname="person.svg"
   inkscape:version="1.3 (0e150ed6c4, 2023-07-21)"
   xmlns:inkscape="http://www.inkscape.org/namespaces/inkscape"
   xmlns:sodipodi="http://sodipodi.sourceforge.net/DTD/sodipodi-0.dtd"
   xmlns="http://www.w3.org/2000/svg"
   xmlns:svg="http://www.w3.org/2000/svg">
  <defs
     id="defs1" />
  <sodipodi:namedview
     id="namedview1"
     pagecolor="#ffffff"
     bordercolor="#000000"
     borderopacity="0.25"
     inkscape:showpageshadow="2"
     inkscape:pageopacity="0.0"
     inkscape:pagecheckerboard="0"
     inkscape:deskcolor="#d1d1d1"
     inkscape:zoom="24.604167"
     inkscape:cx="3.7798476"
     inkscape:cy="12.619814"
     inkscape:window-width="3440"
     inkscape:window-height="1377"
     inkscape:window-x="1912"
     inkscape:window-y="-8"
     inkscape:window-maximized="1"
     inkscape:current-layer="svg1" />
  <path
     d="m 480,-480 q -82.43014,0 -141.13039,-58.70025 -58.70026,-58.70025 -58.70026,-141.1304 0,-82.43014 58.70026,-141.1304 Q 397.56986,-879.6613 480,-879.6613 q 82.43015,0 141.1304,58.70025 58.70026,58.70026 58.70026,141.1304 0,82.43015 -58.70026,141.1304 Q 562.43015,-480 480,-480 Z M 80.338693,-80.338697 V -220.22015 q 0,-42.46401 21.856477,-78.05885 21.85648,-35.59483 58.07579,-54.32896 77.43438,-38.71718 157.36664,-58.07578 79.93226,-19.35859 162.3624,-19.35859 82.43015,0 162.36241,19.35859 79.93226,19.3586 157.36664,58.07578 36.2193,18.73413 58.07578,54.32896 21.85648,35.59484 21.85648,78.05885 v 139.881453 z m 99.915337,-99.915323 h 599.49195 v -39.96613 q 0,-13.73836 -6.86918,-24.97883 -6.86918,-11.24047 -18.10965,-17.48518 Q 687.32431,-296.40559 618.63252,-313.2663 549.94073,-330.12701 480,-330.12701 q -69.94072,0 -138.63251,16.86071 -68.69179,16.86071 -136.13463,50.58214 -11.24048,6.24471 -18.10965,17.48518 -6.86918,11.24047 -6.86918,24.97883 z M 480,-579.91532 q 41.21508,0 70.5652,-29.35013 29.35013,-29.35013 29.35013,-70.5652 0,-41.21507 -29.35013,-70.5652 -29.35012,-29.35012 -70.5652,-29.35012 -41.21507,0 -70.56519,29.35012 -29.35013,29.35013 -29.35013,70.5652 0,41.21507 29.35013,70.5652 29.35012,29.35013 70.56519,29.35013 z m 0,-99.91533 z m 0,499.57663 z"
     id="path1"
     style="stroke-width:1.24894" />
</svg>
