<?xml version="1.0" encoding="UTF-8" standalone="no"?>
<svg
   height="24"
   viewBox="0 -960 960 960"
   width="24"
   version="1.1"
   id="svg1"
   sodipodi:docname="project_settings.svg"
   inkscape:version="1.3 (0e150ed6c4, 2023-07-21)"
   xmlns:inkscape="http://www.inkscape.org/namespaces/inkscape"
   xmlns:sodipodi="http://sodipodi.sourceforge.net/DTD/sodipodi-0.dtd"
   xmlns="http://www.w3.org/2000/svg"
   xmlns:svg="http://www.w3.org/2000/svg">
  <defs
     id="defs1" />
  <sodipodi:namedview
     id="namedview1"
     pagecolor="#ffffff"
     bordercolor="#000000"
     borderopacity="0.25"
     inkscape:showpageshadow="2"
     inkscape:pageopacity="0.0"
     inkscape:pagecheckerboard="0"
     inkscape:deskcolor="#d1d1d1"
     inkscape:zoom="24.604167"
     inkscape:cx="3.6172735"
     inkscape:cy="10.303133"
     inkscape:window-width="3440"
     inkscape:window-height="1377"
     inkscape:window-x="1912"
     inkscape:window-y="-8"
     inkscape:window-maximized="1"
     inkscape:current-layer="svg1" />
  <path
     d="m 664.06097,-111.87807 h 46.01524 v -184.06096 h -46.01524 z m 23.00762,-230.0762 q 9.20305,0 16.10533,-6.90229 6.90229,-6.90229 6.90229,-16.10533 0,-9.20305 -6.90229,-16.10534 -6.90228,-6.90228 -16.10533,-6.90228 -9.20305,0 -16.10534,6.90228 -6.90228,6.90229 -6.90228,16.10534 0,9.20304 6.90228,16.10533 6.90229,6.90229 16.10534,6.90229 z M 134.8857,-848.12193 v 736.24386 -736.24386 230.07621 z m 92.03047,460.15242 h 169.10602 q 12.65419,-26.45877 29.33471,-49.46639 16.68053,-23.00762 37.38739,-42.5641 H 226.91617 Z m 0,184.06096 h 141.49687 q -3.45114,-23.00762 -3.45114,-46.01524 0,-23.00762 3.45114,-46.01524 H 226.91617 Z M 134.8857,-19.847587 q -37.962579,0 -64.996534,-27.033954 -27.033954,-27.033954 -27.033954,-64.996529 v -736.24386 q 0,-37.96257 27.033954,-64.99653 27.033955,-27.03395 64.996534,-27.03395 h 368.12192 l 276.09145,276.09145 v 105.83505 q -21.85724,-6.90228 -44.86486,-10.35343 -23.00762,-3.45114 -47.16562,-3.45114 v -46.01524 H 456.99238 V -848.12193 H 134.8857 v 736.24386 h 261.13649 q 12.65419,26.458764 29.33471,49.466385 16.68053,23.007621 37.38739,42.564098 z M 687.06859,-480 q 95.48162,0 162.77891,67.29729 67.29729,67.29729 67.29729,162.77892 0,95.48163 -67.29729,162.778913 -67.29729,67.29729 -162.77891,67.29729 -95.48163,0 -162.77892,-67.29729 -67.29729,-67.297283 -67.29729,-162.778913 0,-95.48163 67.29729,-162.77892 Q 591.58696,-480 687.06859,-480 Z"
     id="path1"
     style="stroke-width:1.15038" />
</svg>
