<?xml version="1.0" encoding="UTF-8" standalone="no"?>
<svg
   height="24"
   viewBox="0 -960 960 960"
   width="24"
   version="1.1"
   id="svg1"
   sodipodi:docname="three_dots.svg"
   inkscape:version="1.3 (0e150ed6c4, 2023-07-21)"
   xmlns:inkscape="http://www.inkscape.org/namespaces/inkscape"
   xmlns:sodipodi="http://sodipodi.sourceforge.net/DTD/sodipodi-0.dtd"
   xmlns="http://www.w3.org/2000/svg"
   xmlns:svg="http://www.w3.org/2000/svg">
  <defs
     id="defs1" />
  <sodipodi:namedview
     id="namedview1"
     pagecolor="#ffffff"
     bordercolor="#000000"
     borderopacity="0.25"
     inkscape:showpageshadow="2"
     inkscape:pageopacity="0.0"
     inkscape:pagecheckerboard="0"
     inkscape:deskcolor="#d1d1d1"
     inkscape:zoom="49.208333"
     inkscape:cx="11.989839"
     inkscape:cy="12"
     inkscape:window-width="3440"
     inkscape:window-height="1377"
     inkscape:window-x="1912"
     inkscape:window-y="-8"
     inkscape:window-maximized="1"
     inkscape:current-layer="svg1" />
  <path
     d="m 133.31075,-364.43692 q -47.669769,0 -81.616425,-33.94665 Q 17.74767,-432.33023 17.74767,-480 q 0,-47.66977 33.946655,-81.61642 33.946656,-33.94666 81.616425,-33.94666 47.66977,0 81.61643,33.94666 33.94665,33.94665 33.94665,81.61642 0,47.66977 -33.94665,81.61643 -33.94666,33.94665 -81.61643,33.94665 z m 346.68925,0 q -47.66977,0 -81.61643,-33.94665 -33.94665,-33.94666 -33.94665,-81.61643 0,-47.66977 33.94665,-81.61642 33.94666,-33.94666 81.61643,-33.94666 47.66977,0 81.61643,33.94666 33.94665,33.94665 33.94665,81.61642 0,47.66977 -33.94665,81.61643 -33.94666,33.94665 -81.61643,33.94665 z m 346.68924,0 q -47.66977,0 -81.61642,-33.94665 -33.94666,-33.94666 -33.94666,-81.61643 0,-47.66977 33.94666,-81.61642 33.94665,-33.94666 81.61642,-33.94666 47.66978,0 81.61643,33.94666 33.94666,33.94665 33.94666,81.61642 0,47.66977 -33.94666,81.61643 -33.94665,33.94665 -81.61643,33.94665 z"
     id="path1"
     style="stroke-width:1.44454" />
</svg>
