<?xml version="1.0" encoding="UTF-8" standalone="no"?>
<svg
   height="24"
   viewBox="0 -960 960 960"
   width="24"
   version="1.1"
   id="svg1"
   sodipodi:docname="visibility_lock.svg"
   inkscape:version="1.3 (0e150ed6c4, 2023-07-21)"
   xmlns:inkscape="http://www.inkscape.org/namespaces/inkscape"
   xmlns:sodipodi="http://sodipodi.sourceforge.net/DTD/sodipodi-0.dtd"
   xmlns="http://www.w3.org/2000/svg"
   xmlns:svg="http://www.w3.org/2000/svg">
  <defs
     id="defs1" />
  <sodipodi:namedview
     id="namedview1"
     pagecolor="#ffffff"
     bordercolor="#000000"
     borderopacity="0.25"
     inkscape:showpageshadow="2"
     inkscape:pageopacity="0.0"
     inkscape:pagecheckerboard="0"
     inkscape:deskcolor="#d1d1d1"
     inkscape:zoom="49.208333"
     inkscape:cx="11.989839"
     inkscape:cy="12"
     inkscape:window-width="3440"
     inkscape:window-height="1377"
     inkscape:window-x="1912"
     inkscape:window-y="-8"
     inkscape:window-maximized="1"
     inkscape:current-layer="svg1" />
  <path
     d="m 484.30576,-406.8021 q -48.43979,0 -82.34764,-33.90785 -33.90785,-33.90785 -33.90785,-82.34763 0,-48.43979 33.90785,-82.34764 33.90785,-33.90785 82.34764,-33.90785 48.43978,0 82.34763,33.90785 33.90785,33.90785 33.90785,82.34764 0,48.43978 -33.90785,82.34763 -33.90785,33.90785 -82.34763,33.90785 z m 0,206.67641 q -157.16019,0 -286.33295,-87.72983 -129.172757,-87.72983 -187.300498,-235.20206 58.127741,-147.47224 187.300498,-235.20207 129.17276,-87.72983 286.33295,-87.72983 151.77799,0 277.18321,81.80941 125.40522,81.80942 187.83872,219.59369 h -97.95601 q -55.97486,-100.10888 -153.93087,-157.69841 -97.95601,-57.58952 -213.13505,-57.58952 -121.63768,0 -223.36123,64.04816 -101.72355,64.04816 -155.54553,172.76857 53.82198,108.7204 155.54553,172.76856 101.72355,64.04816 223.36123,64.04816 21.52879,0 43.05758,-2.15288 21.5288,-2.15288 43.05759,-6.45864 v 87.19161 q -21.52879,3.22932 -43.05759,5.3822 -21.52879,2.15288 -43.05758,2.15288 z m 0,-129.17276 q 23.68167,0 45.74868,-5.38219 22.06701,-5.3822 41.44293,-15.07016 5.3822,-53.82198 33.90785,-96.87957 28.52565,-43.05758 72.65967,-68.89214 v -7.53507 q 0,-80.73298 -56.51308,-137.24606 -56.51308,-56.51308 -137.24605,-56.51308 -80.73298,0 -137.24606,56.51308 -56.51308,56.51308 -56.51308,137.24606 0,80.73297 56.51308,137.24605 56.51308,56.51308 137.24606,56.51308 z m -5.3822,-193.75913 z m 220.67013,409.04706 q -18.29948,0 -30.67853,-12.37905 -12.37906,-12.37906 -12.37906,-30.67853 v -129.17276 q 0,-18.29947 12.37906,-30.67853 12.37905,-12.37906 30.67853,-12.37906 v -43.05758 q 0,-35.52251 25.29633,-60.81884 25.29633,-25.29634 60.81884,-25.29634 35.52251,0 60.81884,25.29634 25.29633,25.29633 25.29633,60.81884 v 43.05758 q 18.29948,0 30.67853,12.37906 12.37906,12.37906 12.37906,30.67853 v 129.17276 q 0,18.29947 -12.37906,30.67853 -12.37905,12.37905 -30.67853,12.37905 z m 43.05758,-215.28793 h 86.11518 v -43.05758 q 0,-18.29948 -12.37906,-30.67853 -12.37906,-12.37906 -30.67853,-12.37906 -18.29947,0 -30.67853,12.37906 -12.37906,12.37905 -12.37906,30.67853 z"
     id="path1"
     style="stroke-width:1.07644" />
</svg>
