<?xml version="1.0" encoding="UTF-8" standalone="no"?>
<svg
   height="24"
   viewBox="0 -960 960 960"
   width="24"
   version="1.1"
   id="svg1"
   sodipodi:docname="visibility.svg"
   inkscape:version="1.3 (0e150ed6c4, 2023-07-21)"
   xmlns:inkscape="http://www.inkscape.org/namespaces/inkscape"
   xmlns:sodipodi="http://sodipodi.sourceforge.net/DTD/sodipodi-0.dtd"
   xmlns="http://www.w3.org/2000/svg"
   xmlns:svg="http://www.w3.org/2000/svg">
  <defs
     id="defs1" />
  <sodipodi:namedview
     id="namedview1"
     pagecolor="#ffffff"
     bordercolor="#000000"
     borderopacity="0.25"
     inkscape:showpageshadow="2"
     inkscape:pageopacity="0.0"
     inkscape:pagecheckerboard="0"
     inkscape:deskcolor="#d1d1d1"
     inkscape:zoom="34.795546"
     inkscape:cx="10.748502"
     inkscape:cy="12.027401"
     inkscape:window-width="3440"
     inkscape:window-height="1377"
     inkscape:window-x="1912"
     inkscape:window-y="-8"
     inkscape:window-maximized="1"
     inkscape:current-layer="svg1" />
  <path
     d="m 480.00001,-289.18356 q 79.50684,0 135.16163,-55.6548 55.6548,-55.65479 55.6548,-135.16164 0,-79.50684 -55.6548,-135.16164 -55.65479,-55.6548 -135.16163,-55.6548 -79.50685,0 -135.16164,55.6548 -55.6548,55.6548 -55.6548,135.16164 0,79.50685 55.6548,135.16164 55.65479,55.6548 135.16164,55.6548 z m 0,-76.32658 q -47.70411,0 -81.09699,-33.39287 -33.39287,-33.39288 -33.39287,-81.09699 0,-47.70411 33.39287,-81.09699 33.39288,-33.39287 81.09699,-33.39287 47.7041,0 81.09698,33.39287 33.39287,33.39288 33.39287,81.09699 0,47.7041 -33.39287,81.09699 -33.39288,33.39287 -81.09698,33.39287 z m 0,203.53753 q -154.77333,0 -281.98429,-86.39744 Q 70.804763,-334.76749 13.559834,-480 70.804763,-625.2325 198.01572,-711.62995 q 127.21096,-86.39743 281.98429,-86.39743 154.77332,0 281.98428,86.39743 127.21095,86.39744 184.45588,231.62995 -57.24493,145.2325 -184.45588,231.62995 -127.21096,86.39743 -281.98428,86.39744 z m 0,-318.02738 z m 0,233.22008 q 119.79031,0 219.96894,-63.07543 100.17862,-63.07543 153.18319,-170.14465 -53.00457,-107.06922 -153.18319,-170.14466 -100.17863,-63.07543 -219.96894,-63.07543 -119.79032,0 -219.96895,63.07543 -100.17862,63.07544 -153.18319,170.14466 53.00457,107.06922 153.18319,170.14465 100.17863,63.07543 219.96895,63.07543 z"
     id="path1"
     style="stroke-width:1.06009" />
</svg>
