<?xml version="1.0" encoding="UTF-8" standalone="no"?>
<svg
   viewBox="0 0 24 24"
   version="1.1"
   id="svg1"
   sodipodi:docname="web-remove.svg"
   inkscape:version="1.3 (0e150ed6c4, 2023-07-21)"
   xmlns:inkscape="http://www.inkscape.org/namespaces/inkscape"
   xmlns:sodipodi="http://sodipodi.sourceforge.net/DTD/sodipodi-0.dtd"
   xmlns="http://www.w3.org/2000/svg"
   xmlns:svg="http://www.w3.org/2000/svg">
  <defs
     id="defs1" />
  <sodipodi:namedview
     id="namedview1"
     pagecolor="#ffffff"
     bordercolor="#000000"
     borderopacity="0.25"
     inkscape:showpageshadow="2"
     inkscape:pageopacity="0.0"
     inkscape:pagecheckerboard="0"
     inkscape:deskcolor="#d1d1d1"
     inkscape:zoom="24.188944"
     inkscape:cx="12.857113"
     inkscape:cy="11.224136"
     inkscape:window-width="1920"
     inkscape:window-height="1017"
     inkscape:window-x="-8"
     inkscape:window-y="-8"
     inkscape:window-maximized="1"
     inkscape:current-layer="svg1" />
  <path
     d="m 16.74934,11.69685 c 0,-0.763487 -0.06737,-1.504519 -0.157189,-2.2455507 h 3.794982 c 0.179644,0.7185767 0.291922,1.4708357 0.291922,2.2455507 0,0.415427 -0.03368,0.819626 -0.08982,1.212598 0.774716,0.112278 1.493292,0.359288 2.15573,0.718576 0.112278,-0.628754 0.179644,-1.268736 0.179644,-1.931174 0,-6.1752657 -5.05249,-11.22775646 -11.227757,-11.22775646 -6.20895,0 -11.2277575,5.05249076 -11.2277575,11.22775646 0,6.175267 5.0524907,11.227757 11.2277575,11.227757 0.662438,0 1.30242,-0.06737 1.931174,-0.179644 -0.516476,-0.943131 -0.808398,-2.032224 -0.808398,-3.188683 0,-0.325605 0.03368,-0.639982 0.07859,-0.954359 -0.359288,0.707349 -0.75226,1.392242 -1.20137,2.032224 -0.931902,-1.347331 -1.684162,-2.840623 -2.1444995,-4.446192 h 4.1767245 c 0.673666,-1.167687 1.684164,-2.110818 2.907989,-2.694662 0.06737,-0.595071 0.112278,-1.190142 0.112278,-1.796441 M 11.696849,2.7483283 c 0.931904,1.3473309 1.684164,2.8518503 2.144502,4.4574196 H 9.5523485 C 10.012686,5.6001786 10.764946,4.0956592 11.696849,2.7483283 M 3.0065656,13.942402 C 2.8269215,13.223825 2.7146439,12.471565 2.7146439,11.69685 c 0,-0.774715 0.1122776,-1.526974 0.2919217,-2.2455507 H 6.8015475 C 6.7117255,10.192331 6.6443589,10.933363 6.6443589,11.69685 c 0,0.763488 0.067367,1.50452 0.1571886,2.245552 H 3.0065656 m 0.9206761,2.245551 h 3.2785051 c 0.3929715,1.40347 0.8982206,2.750801 1.571886,3.997082 C 6.7229532,19.477686 4.9938786,18.040533 3.9272417,16.187953 M 7.2057468,7.2057479 H 3.9272417 C 4.9938786,5.3419402 6.7229532,3.9047873 8.7776328,3.2086664 8.1039674,4.4549474 7.5987183,5.8022783 7.2057468,7.2057479 M 14.324144,13.942402 H 9.0695545 C 8.9572769,13.20137 8.8899104,12.460338 8.8899104,11.69685 c 0,-0.763487 0.067367,-1.515746 0.1796441,-2.2455507 h 5.2545905 c 0.10105,0.7298047 0.179644,1.4820637 0.179644,2.2455507 0,0.763488 -0.07859,1.50452 -0.179644,2.245552 M 14.604839,3.2086664 c 2.065907,0.7073487 3.783754,2.1332738 4.861618,3.9970815 H 16.154269 C 15.794981,5.8022783 15.278504,4.4549474 14.604839,3.2086664 m 6.534554,16.3476136 2.391512,2.380285 -1.594341,1.594341 -2.380285,-2.391512 -2.380284,2.391512 -1.583114,-1.594341 2.380284,-2.380285 -2.380283,-2.380284 1.583113,-1.583114 2.380284,2.380284 2.380285,-2.380284 1.594341,1.583114 z"
     id="path1"
     style="stroke-width:1.12278" />
</svg>
